<svg xmlns="http://www.w3.org/2000/svg" xmlns:xlink="http://www.w3.org/1999/xlink" width="46.848" height="33.087" viewBox="0 0 46.848 33.087">
                        <defs>
                          <linearGradient id="linear-gradient" x1="0.5" x2="0.5" y2="1" gradientUnits="objectBoundingBox">
                            <stop offset="0" stop-color="#1a2171"/>
                            <stop offset="1" stop-color="#15ffd2"/>
                          </linearGradient>
                        </defs>
                        <path id="Icon_metro-shareable" data-name="Icon metro-shareable" d="M18.5,21.171c0,3.656,3.357,6.619,7.5,6.619s7.493-2.963,7.493-6.619-3.352-6.617-7.493-6.617-7.5,2.963-7.5,6.617Zm-5.32-2.481c1.286-5.2,6.533-9.1,12.815-9.1a14,14,0,0,1,9.274,3.391,3.079,3.079,0,0,0,3.975,0,2.28,2.28,0,0,0,0-3.509A20,20,0,0,0,25.995,4.627C17.6,4.627,10.5,9.5,8.115,16.21H2.571v4.961h7.493A2.966,2.966,0,0,0,13.18,18.689Zm28.744,2.481A2.963,2.963,0,0,0,38.81,23.65c-1.286,5.2-6.533,9.1-12.815,9.1a13.984,13.984,0,0,1-9.274-3.393,3.082,3.082,0,0,0-3.978,0,2.283,2.283,0,0,0,0,3.509,19.991,19.991,0,0,0,13.251,4.849c8.391,0,15.49-4.872,17.88-11.58h5.545V21.171h-7.5Z" transform="translate(-2.571 -4.627)" fill="url(#linear-gradient)"/>
                      </svg>